<svg xmlns="http://www.w3.org/2000/svg" viewBox="0 0 59.73 7.57"><title>habitat</title><path d="M31,22.64h2.27c-.26,1.09-.32,3.59.23,3.73-.39.38-.23,2.46.09,3.46H31A68.54,68.54,0,0,0,31,22.64Zm5.54,4.13c0-.81-.52-1.48-1.1-1.42l.31-1c1.09-.34,2.7-.07,2.7,1.88a27.28,27.28,0,0,0,.19,3.57H36A10.74,10.74,0,0,0,36.56,26.77Z" transform="translate(-30.95 -22.64)" style="fill:#1d1d1b"/><path d="M43.72,24.34c2.49-.49,4.89.35,4.89,2.16a17.75,17.75,0,0,0,.17,3.33H46.17a6.43,6.43,0,0,0,.2-1.18c0-.68-1-1.09-1.9-1.18-1.27-.12-1.8.52-1.8,1a.81.81,0,0,0,.57.76c.16.05.43.11.57,0-.12.25-.25.5-.38.75-1.94.64-3.23-.94-2.4-1.82,1.4-.73,1.47-1.5,2.88-1.49.81,0,1.8.91,2.31,1.12.41,0,.6-.46.6-.83A2.13,2.13,0,0,0,44.58,25a1.86,1.86,0,0,0-.86.22Z" transform="translate(-30.95 -22.64)" style="fill:#1d1d1b"/><path d="M53.65,22.69a10.81,10.81,0,0,0-.6,3.41c0,1.4,1.33,2.42,3.16,2.42,1.28,0,2-.7,2-1.81a1.33,1.33,0,0,0-1-1.32.48.48,0,0,0-.52.21l.3-1.12c1.93-.16,3.34,1,3.34,2.67A2.92,2.92,0,0,1,57.19,30c-1.28,0-2.34-1-3.33-1.21-.5,0-.9.21-.81.7l0,.34H50.89c-.12-1.7,1-4.81.34-7.14Z" transform="translate(-30.95 -22.64)" style="fill:#1d1d1b"/><path d="M62.64,27h1.82a6.28,6.28,0,0,0,.42,2.87H62.39C62.43,29.07,62.88,27.79,62.64,27Zm-.2-3.05h2.24v.93c0,.18-.23.25-.54.37a15.83,15.83,0,0,0-1.7.48Z" transform="translate(-30.95 -22.64)" style="fill:#1d1d1b"/><path d="M67.07,24l2.24-.47a5.39,5.39,0,0,0,.15,2.53c-.45.5-.1,2.94,1.2,2.94a.81.81,0,0,0,.67-.31l0,1.18a2.9,2.9,0,0,1-1.4.33,2.68,2.68,0,0,1-2.88-2.66ZM72,24h.88v1.81H71A2.9,2.9,0,0,0,72,24Z" transform="translate(-30.95 -22.64)" style="fill:#1d1d1b"/><path d="M77.45,24.34c2.49-.49,4.89.35,4.89,2.16a17.75,17.75,0,0,0,.17,3.33h-2.6a6.47,6.47,0,0,0,.19-1.18c0-.68-1-1.09-1.9-1.18-1.27-.12-1.8.52-1.8,1a.81.81,0,0,0,.57.76c.17.05.43.11.57,0-.12.25-.25.5-.38.75-1.94.64-3.23-.94-2.4-1.82,1.4-.73,1.48-1.5,2.88-1.49.82,0,1.8.91,2.31,1.12.41,0,.6-.46.6-.83A2.13,2.13,0,0,0,78.31,25a1.86,1.86,0,0,0-.86.22Z" transform="translate(-30.95 -22.64)" style="fill:#1d1d1b"/><path d="M84.87,24l2.24-.47a5.27,5.27,0,0,0,.14,2.53c-.44.5-.09,2.94,1.2,2.94a.81.81,0,0,0,.67-.31l0,1.18a2.94,2.94,0,0,1-1.41.33,2.67,2.67,0,0,1-2.87-2.66ZM89.81,24h.87v1.81H88.77A2.92,2.92,0,0,0,89.81,24Z" transform="translate(-30.95 -22.64)" style="fill:#1d1d1b"/></svg>