<svg xmlns="http://www.w3.org/2000/svg" xmlns:xlink="http://www.w3.org/1999/xlink" viewBox="0 0 404.31 130.94"><defs><linearGradient id="a" x1="66.9" y1="-54.18" x2="321.14" y2="200.06" gradientUnits="userSpaceOnUse"><stop offset="0" stop-color="#b559fc"/><stop offset="0.39" stop-color="#8349fc"/><stop offset="0.8" stop-color="#5439fb"/><stop offset="1" stop-color="#4233fb"/></linearGradient></defs><title>Asset 4</title><path d="M137.5,71.25a14.09,14.09,0,0,0-8.81-3.16,13.77,13.77,0,0,0-8.81,3.29q-4.08,3.28-4.07,9.66t4.2,9.6a14,14,0,0,0,8.55,3.22,14.33,14.33,0,0,0,8.67-3.29q4.35-3.28,4.34-9.73T137.5,71.25ZM214,73.35a10.34,10.34,0,0,0-8.34-3.68,10.62,10.62,0,0,0-8.42,3.61,11.88,11.88,0,0,0-3.15,8,11.92,11.92,0,0,0,11.7,11.44,10.48,10.48,0,0,0,8.08-3.55A11.4,11.4,0,0,0,217,81.3,12.14,12.14,0,0,0,214,73.35Zm0,0a10.34,10.34,0,0,0-8.34-3.68,10.62,10.62,0,0,0-8.42,3.61,11.88,11.88,0,0,0-3.15,8,11.92,11.92,0,0,0,11.7,11.44,10.48,10.48,0,0,0,8.08-3.55A11.4,11.4,0,0,0,217,81.3,12.14,12.14,0,0,0,214,73.35Zm-76.45-2.1a14.09,14.09,0,0,0-8.81-3.16,13.77,13.77,0,0,0-8.81,3.29q-4.08,3.28-4.07,9.66t4.2,9.6a14,14,0,0,0,8.55,3.22,14.33,14.33,0,0,0,8.67-3.29q4.35-3.28,4.34-9.73T137.5,71.25Zm0,0a14.09,14.09,0,0,0-8.81-3.16,13.77,13.77,0,0,0-8.81,3.29q-4.08,3.28-4.07,9.66t4.2,9.6a14,14,0,0,0,8.55,3.22,14.33,14.33,0,0,0,8.67-3.29q4.35-3.28,4.34-9.73T137.5,71.25ZM214,73.35a10.34,10.34,0,0,0-8.34-3.68,10.62,10.62,0,0,0-8.42,3.61,11.88,11.88,0,0,0-3.15,8,11.92,11.92,0,0,0,11.7,11.44,10.48,10.48,0,0,0,8.08-3.55A11.4,11.4,0,0,0,217,81.3,12.14,12.14,0,0,0,214,73.35Zm0,0a10.34,10.34,0,0,0-8.34-3.68,10.62,10.62,0,0,0-8.42,3.61,11.88,11.88,0,0,0-3.15,8,11.92,11.92,0,0,0,11.7,11.44,10.48,10.48,0,0,0,8.08-3.55A11.4,11.4,0,0,0,217,81.3,12.14,12.14,0,0,0,214,73.35Zm-76.45-2.1a14.09,14.09,0,0,0-8.81-3.16,13.77,13.77,0,0,0-8.81,3.29q-4.08,3.28-4.07,9.66t4.2,9.6a14,14,0,0,0,8.55,3.22,14.33,14.33,0,0,0,8.67-3.29q4.35-3.28,4.34-9.73T137.5,71.25Zm0,0a14.09,14.09,0,0,0-8.81-3.16,13.77,13.77,0,0,0-8.81,3.29q-4.08,3.28-4.07,9.66t4.2,9.6a14,14,0,0,0,8.55,3.22,14.33,14.33,0,0,0,8.67-3.29q4.35-3.28,4.34-9.73T137.5,71.25ZM214,73.35a10.34,10.34,0,0,0-8.34-3.68,10.62,10.62,0,0,0-8.42,3.61,11.88,11.88,0,0,0-3.15,8,11.92,11.92,0,0,0,11.7,11.44,10.48,10.48,0,0,0,8.08-3.55A11.4,11.4,0,0,0,217,81.3,12.14,12.14,0,0,0,214,73.35Zm0,0a10.34,10.34,0,0,0-8.34-3.68,10.62,10.62,0,0,0-8.42,3.61,11.88,11.88,0,0,0-3.15,8,11.92,11.92,0,0,0,11.7,11.44,10.48,10.48,0,0,0,8.08-3.55A11.4,11.4,0,0,0,217,81.3,12.14,12.14,0,0,0,214,73.35Zm-76.45-2.1a14.09,14.09,0,0,0-8.81-3.16,13.77,13.77,0,0,0-8.81,3.29q-4.08,3.28-4.07,9.66t4.2,9.6a14,14,0,0,0,8.55,3.22,14.33,14.33,0,0,0,8.67-3.29q4.35-3.28,4.34-9.73T137.5,71.25ZM404,51.77a25.39,25.39,0,0,0-2.54-7.92A19.54,19.54,0,0,0,389.69,34a39.14,39.14,0,0,0-11.81-1.43,27.69,27.69,0,0,0-12.62,2.73,34.65,34.65,0,0,0-13.41-2.6c-10.65,0-20.39,4.06-29,12.09A18.39,18.39,0,0,0,321.21,42a16.88,16.88,0,0,0,1.08-1.85,23.8,23.8,0,0,0,2.63-8,50.66,50.66,0,0,0,.31-6.33,49.76,49.76,0,0,0-.31-6.35,24.1,24.1,0,0,0-2.66-8C319.66,6.24,313.67.26,299.86.26,292.22.26,286.25,2,282,5.43,278.41,2.51,272.89.26,264.43.26c-7.61,0-13.58,1.72-17.8,5.14a20.19,20.19,0,0,0-6.86-3.7,41.45,41.45,0,0,0-21.66,0,19.56,19.56,0,0,0-11.68,9.59,24.29,24.29,0,0,0-2.61,8,49.34,49.34,0,0,0-.31,6.35v7.12h-1.19c-11.76,0-22.39,5-31.64,14.75-.83.9-1.64,1.8-2.38,2.73A51,51,0,0,0,163.44,45C153.53,35.7,141.89,31,128.82,31s-24.73,4.69-34.71,14c-.64.59-1.26,1.19-1.85,1.8l-.71-.9c-2.09-2.6-8.45-10.53-18.42-10.53-5.28,0-10.52,2-16,6.13l-1.21.81a13.57,13.57,0,0,0-1.19.88c-1,.88-2.32,2-3.87,3.47V25.37A48.62,48.62,0,0,0,50.55,19a23.62,23.62,0,0,0-2.69-8.1C44.14,3.67,36.57,0,25.38,0,11.52,0,5.5,6,2.88,11.07l-.26.51A25.85,25.85,0,0,0,.33,19,49.24,49.24,0,0,0,0,25.5V71.64A49.62,49.62,0,0,0,.31,78a26.28,26.28,0,0,0,2.31,7.56c.12.23.23.48.35.71.31.57.65,1.11,1,1.64a17.07,17.07,0,0,0-1.13,2A25,25,0,0,0,.31,97.79,48.8,48.8,0,0,0,0,104.12a49.65,49.65,0,0,0,.31,6.35,24.4,24.4,0,0,0,2.48,7.76l.09.18c3.81,7.36,11.41,11.07,22.62,11.07,13.81,0,19.8-6,22.39-11.13a26.45,26.45,0,0,0,1.94-4.63c4.19,4.15,7.33,7.08,9.56,8.9.28.23.58.45.87.65l1.16.82c6,4.4,11.1,6.44,16.18,6.44,10.05,0,16.57-8,18.71-10.68l.29-.37.15-.2a48.47,48.47,0,0,0,8.64,5.79,50,50,0,0,0,23.31,5.87,51.24,51.24,0,0,0,22.94-5.47,47.94,47.94,0,0,0,16.46-13.56c.79,1,1.64,1.93,2.52,2.88,9.06,9.61,20,14.69,31.7,14.69a36.9,36.9,0,0,0,13.37-2.34,28.37,28.37,0,0,0,12.2,2.48c8,0,14.2-1.73,18.58-5.19,3.63,3,9.22,5.31,17.84,5.31,7.66,0,13.62-1.71,17.82-5.12,3.62,2.89,9.17,5.12,17.6,5.12,11.2,0,18.77-3.67,22.49-10.93.24-.46.46-.91.68-1.36,8.51,8,18.08,12,28.5,12A39.06,39.06,0,0,0,365.64,127c3.72,1.69,8.33,2.46,14.4,2.46,12.81,0,18.64-5.84,21.28-10.74a7.14,7.14,0,0,0,.37-.73,25.83,25.83,0,0,0,2.31-7.54,51.15,51.15,0,0,0,.31-6.37v-46A50.51,50.51,0,0,0,404,51.77ZM36.74,108.52A10.54,10.54,0,0,1,35.49,112q-1.71,3.56-10,3.55T15.25,112a10.62,10.62,0,0,1-1.12-3.35,38.44,38.44,0,0,1-.2-4.54,38.25,38.25,0,0,1,.2-4.53,11.26,11.26,0,0,1,1.19-3.49,5.5,5.5,0,0,1,3.48-2.76,22.88,22.88,0,0,1,6.64-.79,22.92,22.92,0,0,1,6.64.79A5.61,5.61,0,0,1,35.56,96a10.48,10.48,0,0,1,1.18,3.42,38.13,38.13,0,0,1,.2,4.53A38.44,38.44,0,0,1,36.74,108.52Zm.2-37.14c0,1.66,0,2.93-.13,3.81a7.24,7.24,0,0,1-2.37,5.65q-2.62,2.23-8.94,2.24-8.41,0-10.25-3.42a12,12,0,0,1-1.12-3.48,38.44,38.44,0,0,1-.2-4.54V25.5a38.09,38.09,0,0,1,.2-4.6,12,12,0,0,1,1.12-3.42q1.83-3.56,10.12-3.55t10.12,3.42a10.46,10.46,0,0,1,1.25,3.48,38.44,38.44,0,0,1,.2,4.54Zm48.54,39.7Q81,116.6,77.6,116.6c-1.93,0-4.61-1.27-8-3.81l-1.32-.92q-3-2.5-9.33-8.74c-2.65-2.63-11-10.86-16.84-16.57a8.21,8.21,0,0,1,0-11.7L56.5,60.6q4.78-4.74,7.16-6.71l1.58-1c3.07-2.36,5.69-3.55,7.89-3.55s4.71,1.78,7.56,5.33S85,61,85,63s-1.63,4.38-4.87,7.09l-13,11L84.56,95.57a20.65,20.65,0,0,1,4.14,4.2,5.49,5.49,0,0,1,.86,2.76Q89.56,105.7,85.48,111.08Zm73.71-10.58A35.54,35.54,0,0,1,145.45,113a37.33,37.33,0,0,1-16.76,4,35.85,35.85,0,0,1-16.83-4.28A37.28,37.28,0,0,1,98.12,100.1a33.15,33.15,0,0,1-5.58-18.86q0-15.78,11-26T128.82,45q14.2,0,25.11,10.19t10.91,26A34.16,34.16,0,0,1,159.19,100.5Zm81.25,3.74a38.92,38.92,0,0,1-.19,4.54,9.28,9.28,0,0,1-1.25,3.35q-2,3.56-11.11,3.55t-10.19-6.44q-5.52,6.32-15.38,6.31-11.83,0-21.56-10.32a34.6,34.6,0,0,1,.07-48.18q9.78-10.38,21.49-10.39,9.72,0,15.12,6.58V25.63a36.36,36.36,0,0,1,.2-4.54,10.52,10.52,0,0,1,1.18-3.41A5.61,5.61,0,0,1,222.3,15a28.3,28.3,0,0,1,13.28,0,5.53,5.53,0,0,1,3.48,2.76,11.26,11.26,0,0,1,1.19,3.49,38.73,38.73,0,0,1,.19,4.53Zm35.43.13a38.44,38.44,0,0,1-.2,4.54,10.24,10.24,0,0,1-1.25,3.48q-1.71,3.42-10.12,3.42t-10.12-3.55a12.27,12.27,0,0,1-1.12-3.42,38,38,0,0,1-.2-4.6V58.1a38.25,38.25,0,0,1,.2-4.53,12.33,12.33,0,0,1,1.12-3.49q1.84-3.42,10.25-3.42,6.31,0,8.94,2.24a7.26,7.26,0,0,1,2.37,5.65c.09.88.13,2.15.13,3.81Zm-.2-74.07a10.36,10.36,0,0,1-1.18,3.41,5.57,5.57,0,0,1-3.48,2.7,28.3,28.3,0,0,1-13.28,0,5.5,5.5,0,0,1-3.48-2.76,11.26,11.26,0,0,1-1.19-3.49,38.13,38.13,0,0,1-.2-4.53,38.44,38.44,0,0,1,.2-4.54,10.88,10.88,0,0,1,1.12-3.35q1.84-3.54,10.25-3.55c5.53,0,8.85,1.19,10,3.55a10.36,10.36,0,0,1,1.25,3.49,38.25,38.25,0,0,1,.2,4.53A38.44,38.44,0,0,1,275.67,30.3Zm35.63,74.07a38.44,38.44,0,0,1-.2,4.54,10.46,10.46,0,0,1-1.25,3.48q-1.71,3.42-10.12,3.42t-10.12-3.55a12,12,0,0,1-1.12-3.42,38,38,0,0,1-.2-4.6V58.1a38.25,38.25,0,0,1,.2-4.53,12,12,0,0,1,1.12-3.49q1.83-3.42,10.25-3.42,6.31,0,8.94,2.24a7.26,7.26,0,0,1,2.37,5.65c.08.88.13,2.15.13,3.81Zm-.2-74.07a10.36,10.36,0,0,1-1.18,3.41,5.57,5.57,0,0,1-3.49,2.7,28.26,28.26,0,0,1-13.27,0,5.55,5.55,0,0,1-3.49-2.76,11.48,11.48,0,0,1-1.18-3.49,38.13,38.13,0,0,1-.2-4.53,38.44,38.44,0,0,1,.2-4.54,10.62,10.62,0,0,1,1.12-3.35q1.83-3.54,10.25-3.55t10,3.55a10.58,10.58,0,0,1,1.25,3.49,38.25,38.25,0,0,1,.2,4.53A38.44,38.44,0,0,1,311.1,30.3Zm79.27,73.81a36.36,36.36,0,0,1-.2,4.54,12.12,12.12,0,0,1-1.11,3.48q-1.85,3.42-9,3.42c-4.78,0-8-.59-9.6-1.78a7.07,7.07,0,0,1-2.82-5.19q-4.86,7-16.24,7t-21.1-10.39A34.21,34.21,0,0,1,320.56,81,33.86,33.86,0,0,1,330.36,57q9.79-10.32,21.49-10.32A20.5,20.5,0,0,1,360,48.24a18.08,18.08,0,0,1,5.13,3,19.28,19.28,0,0,1,2.37,2.69q.78-7.35,10.38-7.36a27.49,27.49,0,0,1,7.63.79A5.55,5.55,0,0,1,389,50.08a11.21,11.21,0,0,1,1.18,3.49,36.18,36.18,0,0,1,.2,4.53ZM355.21,69.54a10.66,10.66,0,0,0-8.42,3.68,11.92,11.92,0,0,0-3.22,8A10.9,10.9,0,0,0,347,89.06a11.18,11.18,0,0,0,8.28,3.48A10.46,10.46,0,0,0,363.36,89a11.41,11.41,0,0,0,3.22-7.82,12.14,12.14,0,0,0-3.09-8A10.27,10.27,0,0,0,355.21,69.54Zm-149.6.13a10.62,10.62,0,0,0-8.42,3.61,11.88,11.88,0,0,0-3.15,8,11.92,11.92,0,0,0,11.7,11.44,10.48,10.48,0,0,0,8.08-3.55A11.4,11.4,0,0,0,217,81.3a12.14,12.14,0,0,0-3.09-8A10.34,10.34,0,0,0,205.61,69.67ZM137.5,71.25a14.09,14.09,0,0,0-8.81-3.16,13.77,13.77,0,0,0-8.81,3.29q-4.08,3.28-4.07,9.66t4.2,9.6a14,14,0,0,0,8.55,3.22,14.33,14.33,0,0,0,8.67-3.29q4.35-3.28,4.34-9.73T137.5,71.25Zm0,0a14.09,14.09,0,0,0-8.81-3.16,13.77,13.77,0,0,0-8.81,3.29q-4.08,3.28-4.07,9.66t4.2,9.6a14,14,0,0,0,8.55,3.22,14.33,14.33,0,0,0,8.67-3.29q4.35-3.28,4.34-9.73T137.5,71.25ZM214,73.35a10.34,10.34,0,0,0-8.34-3.68,10.62,10.62,0,0,0-8.42,3.61,11.88,11.88,0,0,0-3.15,8,11.92,11.92,0,0,0,11.7,11.44,10.48,10.48,0,0,0,8.08-3.55A11.4,11.4,0,0,0,217,81.3,12.14,12.14,0,0,0,214,73.35Zm0,0a10.34,10.34,0,0,0-8.34-3.68,10.62,10.62,0,0,0-8.42,3.61,11.88,11.88,0,0,0-3.15,8,11.92,11.92,0,0,0,11.7,11.44,10.48,10.48,0,0,0,8.08-3.55A11.4,11.4,0,0,0,217,81.3,12.14,12.14,0,0,0,214,73.35Zm-76.45-2.1a14.09,14.09,0,0,0-8.81-3.16,13.77,13.77,0,0,0-8.81,3.29q-4.08,3.28-4.07,9.66t4.2,9.6a14,14,0,0,0,8.55,3.22,14.33,14.33,0,0,0,8.67-3.29q4.35-3.28,4.34-9.73T137.5,71.25Zm0,0a14.09,14.09,0,0,0-8.81-3.16,13.77,13.77,0,0,0-8.81,3.29q-4.08,3.28-4.07,9.66t4.2,9.6a14,14,0,0,0,8.55,3.22,14.33,14.33,0,0,0,8.67-3.29q4.35-3.28,4.34-9.73T137.5,71.25ZM214,73.35a10.34,10.34,0,0,0-8.34-3.68,10.62,10.62,0,0,0-8.42,3.61,11.88,11.88,0,0,0-3.15,8,11.92,11.92,0,0,0,11.7,11.44,10.48,10.48,0,0,0,8.08-3.55A11.4,11.4,0,0,0,217,81.3,12.14,12.14,0,0,0,214,73.35Zm0,0a10.34,10.34,0,0,0-8.34-3.68,10.62,10.62,0,0,0-8.42,3.61,11.88,11.88,0,0,0-3.15,8,11.92,11.92,0,0,0,11.7,11.44,10.48,10.48,0,0,0,8.08-3.55A11.4,11.4,0,0,0,217,81.3,12.14,12.14,0,0,0,214,73.35Zm-76.45-2.1a14.09,14.09,0,0,0-8.81-3.16,13.77,13.77,0,0,0-8.81,3.29q-4.08,3.28-4.07,9.66t4.2,9.6a14,14,0,0,0,8.55,3.22,14.33,14.33,0,0,0,8.67-3.29q4.35-3.28,4.34-9.73T137.5,71.25Zm0,0a14.09,14.09,0,0,0-8.81-3.16,13.77,13.77,0,0,0-8.81,3.29q-4.08,3.28-4.07,9.66t4.2,9.6a14,14,0,0,0,8.55,3.22,14.33,14.33,0,0,0,8.67-3.29q4.35-3.28,4.34-9.73T137.5,71.25Zm0,0a14.09,14.09,0,0,0-8.81-3.16,13.77,13.77,0,0,0-8.81,3.29q-4.08,3.28-4.07,9.66t4.2,9.6a14,14,0,0,0,8.55,3.22,14.33,14.33,0,0,0,8.67-3.29q4.35-3.28,4.34-9.73T137.5,71.25Z" style="fill:url(#a)"/></svg>