<svg xmlns="http://www.w3.org/2000/svg" viewBox="0 0 129.05 41.8"><title>Asset 3</title><path d="M43.89,22.74a4.53,4.53,0,0,0-2.81-1,4.47,4.47,0,0,0-2.82,1.05A3.75,3.75,0,0,0,37,25.87a3.6,3.6,0,0,0,1.34,3.06A4.41,4.41,0,0,0,41,30a4.55,4.55,0,0,0,2.76-1.05,3.64,3.64,0,0,0,1.39-3.11A3.64,3.64,0,0,0,43.89,22.74Zm24.4.67a3.3,3.3,0,0,0-2.66-1.17,3.4,3.4,0,0,0-2.69,1.15,3.79,3.79,0,0,0-1,2.54,3.8,3.8,0,0,0,3.73,3.65,3.35,3.35,0,0,0,2.58-1.13,3.63,3.63,0,0,0,1-2.5A3.86,3.86,0,0,0,68.29,23.41Zm0,0a3.3,3.3,0,0,0-2.66-1.17,3.4,3.4,0,0,0-2.69,1.15,3.79,3.79,0,0,0-1,2.54,3.8,3.8,0,0,0,3.73,3.65,3.35,3.35,0,0,0,2.58-1.13,3.63,3.63,0,0,0,1-2.5A3.86,3.86,0,0,0,68.29,23.41Zm-24.4-.67a4.53,4.53,0,0,0-2.81-1,4.47,4.47,0,0,0-2.82,1.05A3.75,3.75,0,0,0,37,25.87a3.6,3.6,0,0,0,1.34,3.06A4.41,4.41,0,0,0,41,30a4.55,4.55,0,0,0,2.76-1.05,3.64,3.64,0,0,0,1.39-3.11A3.64,3.64,0,0,0,43.89,22.74Zm0,0a4.53,4.53,0,0,0-2.81-1,4.47,4.47,0,0,0-2.82,1.05A3.75,3.75,0,0,0,37,25.87a3.6,3.6,0,0,0,1.34,3.06A4.41,4.41,0,0,0,41,30a4.55,4.55,0,0,0,2.76-1.05,3.64,3.64,0,0,0,1.39-3.11A3.64,3.64,0,0,0,43.89,22.74Zm24.4.67a3.3,3.3,0,0,0-2.66-1.17,3.4,3.4,0,0,0-2.69,1.15,3.79,3.79,0,0,0-1,2.54,3.8,3.8,0,0,0,3.73,3.65,3.35,3.35,0,0,0,2.58-1.13,3.63,3.63,0,0,0,1-2.5A3.86,3.86,0,0,0,68.29,23.41Zm0,0a3.3,3.3,0,0,0-2.66-1.17,3.4,3.4,0,0,0-2.69,1.15,3.79,3.79,0,0,0-1,2.54,3.8,3.8,0,0,0,3.73,3.65,3.35,3.35,0,0,0,2.58-1.13,3.63,3.63,0,0,0,1-2.5A3.86,3.86,0,0,0,68.29,23.41Zm-24.4-.67a4.53,4.53,0,0,0-2.81-1,4.47,4.47,0,0,0-2.82,1.05A3.75,3.75,0,0,0,37,25.87a3.6,3.6,0,0,0,1.34,3.06A4.41,4.41,0,0,0,41,30a4.55,4.55,0,0,0,2.76-1.05,3.64,3.64,0,0,0,1.39-3.11A3.64,3.64,0,0,0,43.89,22.74Zm0,0a4.53,4.53,0,0,0-2.81-1,4.47,4.47,0,0,0-2.82,1.05A3.75,3.75,0,0,0,37,25.87a3.6,3.6,0,0,0,1.34,3.06A4.41,4.41,0,0,0,41,30a4.55,4.55,0,0,0,2.76-1.05,3.64,3.64,0,0,0,1.39-3.11A3.64,3.64,0,0,0,43.89,22.74Zm24.4.67a3.3,3.3,0,0,0-2.66-1.17,3.4,3.4,0,0,0-2.69,1.15,3.79,3.79,0,0,0-1,2.54,3.8,3.8,0,0,0,3.73,3.65,3.35,3.35,0,0,0,2.58-1.13,3.63,3.63,0,0,0,1-2.5A3.86,3.86,0,0,0,68.29,23.41Zm0,0a3.3,3.3,0,0,0-2.66-1.17,3.4,3.4,0,0,0-2.69,1.15,3.79,3.79,0,0,0-1,2.54,3.8,3.8,0,0,0,3.73,3.65,3.35,3.35,0,0,0,2.58-1.13,3.63,3.63,0,0,0,1-2.5A3.86,3.86,0,0,0,68.29,23.41Zm-24.4-.67a4.53,4.53,0,0,0-2.81-1,4.47,4.47,0,0,0-2.82,1.05A3.75,3.75,0,0,0,37,25.87a3.6,3.6,0,0,0,1.34,3.06A4.41,4.41,0,0,0,41,30a4.55,4.55,0,0,0,2.76-1.05,3.64,3.64,0,0,0,1.39-3.11A3.64,3.64,0,0,0,43.89,22.74ZM129,16.52a7.86,7.86,0,0,0-.81-2.52,6.2,6.2,0,0,0-3.75-3.14,12.64,12.64,0,0,0-3.77-.45,8.74,8.74,0,0,0-4,.87,11.07,11.07,0,0,0-4.28-.83,13.24,13.24,0,0,0-9.25,3.86,6,6,0,0,0-.53-.92,4.79,4.79,0,0,0,.34-.59,7.4,7.4,0,0,0,.84-2.56,15.49,15.49,0,0,0,.1-2,15.7,15.7,0,0,0-.1-2,7.64,7.64,0,0,0-.85-2.56C102,2,100.12.08,95.71.08A8.84,8.84,0,0,0,90,1.73,8.65,8.65,0,0,0,84.4.08a8.85,8.85,0,0,0-5.68,1.64A6.51,6.51,0,0,0,76.53.54a13.21,13.21,0,0,0-6.91,0A6.25,6.25,0,0,0,65.89,3.6a7.76,7.76,0,0,0-.83,2.55,15.77,15.77,0,0,0-.1,2v2.27h-.38a13.62,13.62,0,0,0-10.1,4.71c-.26.28-.52.57-.76.87a16.32,16.32,0,0,0-1.55-1.68,16,16,0,0,0-22.13,0c-.2.19-.4.38-.59.58-.08-.1-.15-.2-.23-.29-.66-.83-2.69-3.36-5.88-3.36a8.45,8.45,0,0,0-5.1,2l-.38.26a2.88,2.88,0,0,0-.38.28c-.34.28-.74.65-1.24,1.11V8.1a15.87,15.87,0,0,0-.1-2,7.54,7.54,0,0,0-.86-2.58C14.09,1.17,11.67,0,8.1,0,3.68,0,1.76,1.92.92,3.53L.84,3.7A8,8,0,0,0,.11,6.07,15.73,15.73,0,0,0,0,8.14V22.87a16,16,0,0,0,.1,2,8.19,8.19,0,0,0,.74,2.41l.11.23c.1.18.21.35.32.52-.13.2-.25.41-.36.62A8.17,8.17,0,0,0,.1,31.21a15.7,15.7,0,0,0-.1,2,15.87,15.87,0,0,0,.1,2,7.85,7.85,0,0,0,.79,2.48l0,.06c1.22,2.35,3.64,3.53,7.22,3.53,4.41,0,6.32-1.91,7.15-3.55a9.56,9.56,0,0,0,.62-1.48c1.33,1.32,2.34,2.26,3.05,2.84l.27.21.37.26a8.76,8.76,0,0,0,5.17,2c3.21,0,5.29-2.56,6-3.4a.94.94,0,0,0,.09-.12l.05-.07a15.3,15.3,0,0,0,2.76,1.85,15.92,15.92,0,0,0,7.44,1.88,16.39,16.39,0,0,0,7.32-1.75,15.23,15.23,0,0,0,5.26-4.33c.25.31.52.62.8.92a13.79,13.79,0,0,0,10.12,4.69,11.73,11.73,0,0,0,4.27-.75,9,9,0,0,0,3.89.79,9.4,9.4,0,0,0,5.93-1.65,8.68,8.68,0,0,0,5.7,1.69,8.79,8.79,0,0,0,5.68-1.63,8.76,8.76,0,0,0,5.62,1.63c3.58,0,6-1.17,7.18-3.49.08-.14.15-.29.22-.43a13,13,0,0,0,9.09,3.84,12.46,12.46,0,0,0,4.55-.79,11,11,0,0,0,4.6.79c4.09,0,6-1.86,6.79-3.43l.12-.23a8.25,8.25,0,0,0,.73-2.41,15.66,15.66,0,0,0,.1-2V18.55A15.66,15.66,0,0,0,129,16.52ZM11.73,34.64a3.42,3.42,0,0,1-.4,1.11c-.37.76-1.43,1.13-3.19,1.13s-2.88-.37-3.27-1.13a3.29,3.29,0,0,1-.36-1.07,12.73,12.73,0,0,1-.06-1.45,12.53,12.53,0,0,1,.06-1.44,3.53,3.53,0,0,1,.38-1.12A1.76,1.76,0,0,1,6,29.79a7.18,7.18,0,0,1,2.12-.25,7.18,7.18,0,0,1,2.12.25,1.8,1.8,0,0,1,1.11.86,3.39,3.39,0,0,1,.38,1.09,12.85,12.85,0,0,1,.06,1.45A12.85,12.85,0,0,1,11.73,34.64Zm.06-11.86c0,.53,0,.94,0,1.22A2.3,2.3,0,0,1,11,25.8a4.4,4.4,0,0,1-2.85.72c-1.79,0-2.88-.37-3.27-1.09a3.73,3.73,0,0,1-.36-1.11,13,13,0,0,1-.06-1.45V8.14a12.77,12.77,0,0,1,.06-1.47,3.72,3.72,0,0,1,.36-1.09c.39-.76,1.47-1.13,3.23-1.13s2.86.36,3.23,1.09a3.42,3.42,0,0,1,.4,1.11,12.73,12.73,0,0,1,.06,1.45ZM27.28,35.46c-1,1.17-1.79,1.76-2.51,1.76A5,5,0,0,1,22.21,36l-.42-.29c-.65-.53-1.64-1.46-3-2.79l-5.38-5.29a2.63,2.63,0,0,1,0-3.74L18,19.34c1-1,1.79-1.72,2.29-2.14l.5-.33a4.43,4.43,0,0,1,2.52-1.14c.7,0,1.51.57,2.42,1.7a5.05,5.05,0,0,1,1.36,2.67c0,.64-.52,1.4-1.56,2.26l-4.15,3.53L27,30.51a6.23,6.23,0,0,1,1.32,1.34,1.77,1.77,0,0,1,.28.88A5.2,5.2,0,0,1,27.28,35.46Zm23.53-3.38a11.38,11.38,0,0,1-4.38,4,12,12,0,0,1-5.35,1.28A11.4,11.4,0,0,1,35.71,36a11.87,11.87,0,0,1-4.39-4,10.54,10.54,0,0,1-1.78-6,10.84,10.84,0,0,1,3.52-8.31,11.52,11.52,0,0,1,8.06-3.27,11.38,11.38,0,0,1,8,3.25,10.86,10.86,0,0,1,3.49,8.29A10.87,10.87,0,0,1,50.81,32.08Zm25.94,1.19a12.73,12.73,0,0,1-.06,1.45,3.23,3.23,0,0,1-.4,1.07c-.42.76-1.6,1.13-3.55,1.13s-3-.68-3.25-2.05a6.19,6.19,0,0,1-4.91,2,9.32,9.32,0,0,1-6.88-3.29,11,11,0,0,1,0-15.38,9.31,9.31,0,0,1,6.86-3.32A5.93,5.93,0,0,1,69.41,17V8.18a10.82,10.82,0,0,1,.06-1.45,3.39,3.39,0,0,1,.38-1.09A1.8,1.8,0,0,1,71,4.78a9.11,9.11,0,0,1,4.24,0,1.76,1.76,0,0,1,1.11.88,3.8,3.8,0,0,1,.38,1.12,12.65,12.65,0,0,1,.06,1.44Zm11.31,0A12.22,12.22,0,0,1,88,34.76a3.07,3.07,0,0,1-.4,1.11c-.36.73-1.44,1.1-3.23,1.1s-2.83-.38-3.23-1.14a4,4,0,0,1-.35-1.09,10.33,10.33,0,0,1-.07-1.47V18.55a10.38,10.38,0,0,1,.07-1.45A4,4,0,0,1,81.13,16c.4-.73,1.48-1.1,3.27-1.1a4.41,4.41,0,0,1,2.86.72,2.29,2.29,0,0,1,.75,1.8,12.08,12.08,0,0,1,0,1.22ZM88,9.67a3.27,3.27,0,0,1-.37,1.09,1.82,1.82,0,0,1-1.12.86,9.07,9.07,0,0,1-4.23,0,1.71,1.71,0,0,1-1.11-.88,3.32,3.32,0,0,1-.38-1.11,10.38,10.38,0,0,1-.07-1.45,10.47,10.47,0,0,1,.07-1.45,3.59,3.59,0,0,1,.35-1.07c.4-.75,1.48-1.13,3.27-1.13s2.83.38,3.19,1.13A3.17,3.17,0,0,1,88,6.78a12.16,12.16,0,0,1,.07,1.44A12.22,12.22,0,0,1,88,9.67ZM99.37,33.31a12.22,12.22,0,0,1-.07,1.45,3.07,3.07,0,0,1-.4,1.11c-.36.73-1.44,1.1-3.23,1.1s-2.84-.38-3.23-1.14a4.05,4.05,0,0,1-.36-1.09A12.65,12.65,0,0,1,92,33.27V18.55a12.73,12.73,0,0,1,.06-1.45A4,4,0,0,1,92.44,16c.39-.73,1.48-1.1,3.27-1.1a4.41,4.41,0,0,1,2.86.72,2.32,2.32,0,0,1,.75,1.8,12.08,12.08,0,0,1,.05,1.22ZM99.3,9.67a3.1,3.1,0,0,1-.38,1.09,1.77,1.77,0,0,1-1.11.86,9.11,9.11,0,0,1-4.24,0,1.76,1.76,0,0,1-1.11-.88,3.85,3.85,0,0,1-.38-1.11A12.73,12.73,0,0,1,92,8.18a12.85,12.85,0,0,1,.06-1.45,3.64,3.64,0,0,1,.36-1.07c.39-.75,1.48-1.13,3.27-1.13s2.83.38,3.19,1.13a3.17,3.17,0,0,1,.4,1.12,12.16,12.16,0,0,1,.07,1.44A12.22,12.22,0,0,1,99.3,9.67Zm25.3,23.56a12.73,12.73,0,0,1-.06,1.45,4,4,0,0,1-.35,1.11c-.4.73-1.35,1.09-2.88,1.09a5.61,5.61,0,0,1-3.06-.57,2.21,2.21,0,0,1-.9-1.65q-1.56,2.22-5.19,2.22a9.14,9.14,0,0,1-6.73-3.31,10.93,10.93,0,0,1-3.11-7.7,10.77,10.77,0,0,1,3.13-7.68,9.32,9.32,0,0,1,6.86-3.3,6.45,6.45,0,0,1,2.6.51,5.7,5.7,0,0,1,1.64.94,6.21,6.21,0,0,1,.75.86c.17-1.56,1.27-2.35,3.32-2.35a9,9,0,0,1,2.43.25,1.78,1.78,0,0,1,1.11.89,3.56,3.56,0,0,1,.38,1.11,12.73,12.73,0,0,1,.06,1.45Zm-11.22-11a3.41,3.41,0,0,0-2.69,1.17,3.83,3.83,0,0,0-1,2.56,3.48,3.48,0,0,0,1.09,2.5,3.56,3.56,0,0,0,2.64,1.11A3.35,3.35,0,0,0,116,28.41a3.63,3.63,0,0,0,1-2.5,3.86,3.86,0,0,0-1-2.54A3.26,3.26,0,0,0,113.38,22.2Zm-47.75,0a3.4,3.4,0,0,0-2.69,1.15,3.79,3.79,0,0,0-1,2.54,3.8,3.8,0,0,0,3.73,3.65,3.35,3.35,0,0,0,2.58-1.13,3.63,3.63,0,0,0,1-2.5,3.86,3.86,0,0,0-1-2.54A3.3,3.3,0,0,0,65.63,22.24Zm-21.74.5a4.53,4.53,0,0,0-2.81-1,4.47,4.47,0,0,0-2.82,1.05A3.75,3.75,0,0,0,37,25.87a3.6,3.6,0,0,0,1.34,3.06A4.41,4.41,0,0,0,41,30a4.55,4.55,0,0,0,2.76-1.05,3.64,3.64,0,0,0,1.39-3.11A3.64,3.64,0,0,0,43.89,22.74Zm0,0a4.53,4.53,0,0,0-2.81-1,4.47,4.47,0,0,0-2.82,1.05A3.75,3.75,0,0,0,37,25.87a3.6,3.6,0,0,0,1.34,3.06A4.41,4.41,0,0,0,41,30a4.55,4.55,0,0,0,2.76-1.05,3.64,3.64,0,0,0,1.39-3.11A3.64,3.64,0,0,0,43.89,22.74Zm24.4.67a3.3,3.3,0,0,0-2.66-1.17,3.4,3.4,0,0,0-2.69,1.15,3.79,3.79,0,0,0-1,2.54,3.8,3.8,0,0,0,3.73,3.65,3.35,3.35,0,0,0,2.58-1.13,3.63,3.63,0,0,0,1-2.5A3.86,3.86,0,0,0,68.29,23.41Zm0,0a3.3,3.3,0,0,0-2.66-1.17,3.4,3.4,0,0,0-2.69,1.15,3.79,3.79,0,0,0-1,2.54,3.8,3.8,0,0,0,3.73,3.65,3.35,3.35,0,0,0,2.58-1.13,3.63,3.63,0,0,0,1-2.5A3.86,3.86,0,0,0,68.29,23.41Zm-24.4-.67a4.53,4.53,0,0,0-2.81-1,4.47,4.47,0,0,0-2.82,1.05A3.75,3.75,0,0,0,37,25.87a3.6,3.6,0,0,0,1.34,3.06A4.41,4.41,0,0,0,41,30a4.55,4.55,0,0,0,2.76-1.05,3.64,3.64,0,0,0,1.39-3.11A3.64,3.64,0,0,0,43.89,22.74Zm0,0a4.53,4.53,0,0,0-2.81-1,4.47,4.47,0,0,0-2.82,1.05A3.75,3.75,0,0,0,37,25.87a3.6,3.6,0,0,0,1.34,3.06A4.41,4.41,0,0,0,41,30a4.55,4.55,0,0,0,2.76-1.05,3.64,3.64,0,0,0,1.39-3.11A3.64,3.64,0,0,0,43.89,22.74Zm24.4.67a3.3,3.3,0,0,0-2.66-1.17,3.4,3.4,0,0,0-2.69,1.15,3.79,3.79,0,0,0-1,2.54,3.8,3.8,0,0,0,3.73,3.65,3.35,3.35,0,0,0,2.58-1.13,3.63,3.63,0,0,0,1-2.5A3.86,3.86,0,0,0,68.29,23.41Zm0,0a3.3,3.3,0,0,0-2.66-1.17,3.4,3.4,0,0,0-2.69,1.15,3.79,3.79,0,0,0-1,2.54,3.8,3.8,0,0,0,3.73,3.65,3.35,3.35,0,0,0,2.58-1.13,3.63,3.63,0,0,0,1-2.5A3.86,3.86,0,0,0,68.29,23.41Zm-24.4-.67a4.53,4.53,0,0,0-2.81-1,4.47,4.47,0,0,0-2.82,1.05A3.75,3.75,0,0,0,37,25.87a3.6,3.6,0,0,0,1.34,3.06A4.41,4.41,0,0,0,41,30a4.55,4.55,0,0,0,2.76-1.05,3.64,3.64,0,0,0,1.39-3.11A3.64,3.64,0,0,0,43.89,22.74Zm0,0a4.53,4.53,0,0,0-2.81-1,4.47,4.47,0,0,0-2.82,1.05A3.75,3.75,0,0,0,37,25.87a3.6,3.6,0,0,0,1.34,3.06A4.41,4.41,0,0,0,41,30a4.55,4.55,0,0,0,2.76-1.05,3.64,3.64,0,0,0,1.39-3.11A3.64,3.64,0,0,0,43.89,22.74Zm0,0a4.53,4.53,0,0,0-2.81-1,4.47,4.47,0,0,0-2.82,1.05A3.75,3.75,0,0,0,37,25.87a3.6,3.6,0,0,0,1.34,3.06A4.41,4.41,0,0,0,41,30a4.55,4.55,0,0,0,2.76-1.05,3.64,3.64,0,0,0,1.39-3.11A3.64,3.64,0,0,0,43.89,22.74Z"/></svg>