<svg xmlns="http://www.w3.org/2000/svg" viewBox="0 0 103.63 130.67"><title>kodiia_logo_bw_small</title><path d="M100.81,92.69c-1.45-2.44-3.6-4.76-7.17-7.77L88.94,81l.24-.21C91.67,78.75,99,72.55,99,63c0-7.1-4.19-13.16-7.35-17.11-2.1-2.62-8.49-10.57-18.48-10.57-5.27,0-10.51,2-16,6.13l-1.85,1.24-.58.49c-1,.88-2.3,2-3.75,3.35V25.44a51.21,51.21,0,0,0-.31-6.33A24,24,0,0,0,48,11C44.24,3.69,36.66,0,25.44,0,11.53,0,5.49,6.06,2.87,11.14l-.1.21-.1.21A25.29,25.29,0,0,0,.33,19.09,48.21,48.21,0,0,0,0,25.57V71.71a49.42,49.42,0,0,0,.32,6.34,25.61,25.61,0,0,0,2.35,7.67l.14.31.17.3c.31.58.64,1.13,1,1.66a17.19,17.19,0,0,0-1.1,1.91A24.55,24.55,0,0,0,.32,97.85,49.14,49.14,0,0,0,0,104.18a49.42,49.42,0,0,0,.32,6.34,24.2,24.2,0,0,0,2.5,7.85l.05.11c3.81,7.39,11.44,11.14,22.7,11.14,13.83,0,19.84-6,22.45-11.16a26.72,26.72,0,0,0,1.9-4.55c4.24,4.18,7.27,7,9.49,8.82l.44.37,1.63,1.13c6,4.39,11.1,6.44,16.19,6.44,10.09,0,16.61-8.06,18.76-10.71l.14-.18.14-.18c4.72-6.23,6.92-11.63,6.92-17A19.36,19.36,0,0,0,100.81,92.69Zm-64,15.9a10.54,10.54,0,0,1-1.25,3.48q-1.71,3.56-10,3.55t-10.25-3.55a10.62,10.62,0,0,1-1.12-3.35,38.44,38.44,0,0,1-.2-4.54,38.25,38.25,0,0,1,.2-4.53,11.26,11.26,0,0,1,1.19-3.49,5.5,5.5,0,0,1,3.48-2.76,22.88,22.88,0,0,1,6.64-.79,22.92,22.92,0,0,1,6.64.79,5.61,5.61,0,0,1,3.48,2.7,10.48,10.48,0,0,1,1.18,3.42,38.13,38.13,0,0,1,.2,4.53A38.44,38.44,0,0,1,36.81,108.59ZM37,71.45c0,1.66,0,2.93-.13,3.81a7.24,7.24,0,0,1-2.37,5.65q-2.62,2.24-8.94,2.24-8.41,0-10.25-3.42a12,12,0,0,1-1.12-3.48,38.44,38.44,0,0,1-.2-4.54V25.57a38.09,38.09,0,0,1,.2-4.6,12,12,0,0,1,1.12-3.42Q17.15,14,25.44,14t10.12,3.42a10.46,10.46,0,0,1,1.25,3.48,38.44,38.44,0,0,1,.2,4.54Zm48.54,39.7q-4.47,5.52-7.88,5.52c-1.93,0-4.61-1.27-8-3.81l-1.32-.92q-3-2.5-9.33-8.74c-2.65-2.63-11-10.86-16.84-16.57a8.21,8.21,0,0,1,0-11.7L56.57,60.67q4.78-4.74,7.16-6.71l1.58-1.05c3.07-2.36,5.69-3.55,7.89-3.55s4.71,1.78,7.56,5.33S85,61,85,63s-1.63,4.38-4.87,7.09l-13,11.05L84.63,95.64a20.65,20.65,0,0,1,4.14,4.2,5.49,5.49,0,0,1,.86,2.76Q89.63,105.76,85.55,111.15Z" style="fill:#000"/></svg>