<?xml version="1.0" encoding="UTF-8" standalone="no"?>
<!DOCTYPE svg PUBLIC "-//W3C//DTD SVG 1.1//EN" "http://www.w3.org/Graphics/SVG/1.1/DTD/svg11.dtd">
<svg width="122,88pt" height="122,88pt" viewBox="0 0 122.88 122.88" overflow="visible" version="1.1" xmlns="http://www.w3.org/2000/svg">
  <path d="M0.48,81.76 L0.48,41.12 L41.12,41.12 L41.12,81.76 z" stroke="Black" stroke-width="0" fill="#000000" fill-opacity="1" />
  <path d="M41.12,41.12 L41.12,0.48 L81.76,0.48 L81.76,41.12 z" stroke="Black" stroke-width="0" fill="#000000" fill-opacity="1" />
  <path d="M122.4,122.4 L81.76,122.4 L81.76,41.12 L122.4,41.12 z" stroke="Black" stroke-width="0" fill="#000000" fill-opacity="1" />
  <path d="M41.12,122.4 L41.12,81.76 L81.76,81.76 L81.76,122.4 z" stroke="Black" stroke-width="0" fill="#000000" fill-opacity="1" />
  <path d="M81.76003,122 L81.76003,81.76003 L41.12003,81.76003 L41.12003,122" stroke="#000000" stroke-width="0.24" fill="none" />
  <path d="M0.480024,81.76003 L41.12003,81.76003 L41.12003,41.12003 L0.480024,41.12003 z" stroke="#000000" stroke-width="0.24" fill="none" />
  <path d="M41.12003,41.12003 L81.76003,41.12003 L81.76003,0.480024 L41.12003,0.480024 z" stroke="#000000" stroke-width="0.24" fill="none" />
  <path d="M122,41.12003 L81.76003,41.12003 L81.76003,122" stroke="#000000" stroke-width="0.24" fill="none" />
</svg>