<svg xmlns="http://www.w3.org/2000/svg" viewBox="0 0 202.07 202.07"><title>paths</title><path d="M61,121a20,20,0,0,0,20,20" style="fill:none;stroke:#ecebf6;stroke-linecap:round;stroke-linejoin:round;stroke-width:2px"/><path d="M61,161.06a20,20,0,0,0-20-20" style="fill:none;stroke:#ecebf6;stroke-linecap:round;stroke-linejoin:round;stroke-width:2px"/><path d="M161.06,61a20,20,0,0,0,20-20" style="fill:none;stroke:#ecebf6;stroke-linecap:round;stroke-linejoin:round;stroke-width:2px"/><path d="M201.07,61a20,20,0,0,0-20,20" style="fill:none;stroke:#ecebf6;stroke-linecap:round;stroke-linejoin:round;stroke-width:2px"/><line x1="21.01" y1="201.07" x2="21.01" y2="161.06" style="fill:none;stroke:#ecebf6;stroke-linecap:round;stroke-linejoin:round;stroke-width:2px"/><line x1="41.01" y1="181.07" x2="1" y2="181.07" style="fill:none;stroke:#ecebf6;stroke-linecap:round;stroke-linejoin:round;stroke-width:2px"/><path d="M21,161.06a20,20,0,0,0-20-20" style="fill:none;stroke:#ecebf6;stroke-linecap:round;stroke-linejoin:round;stroke-width:2px"/><path d="M21,121a20,20,0,0,0,20,20" style="fill:none;stroke:#ecebf6;stroke-linecap:round;stroke-linejoin:round;stroke-width:2px"/><path d="M81,181.07a20,20,0,0,0-20,20" style="fill:none;stroke:#ecebf6;stroke-linecap:round;stroke-linejoin:round;stroke-width:2px"/><path d="M41,181.07a20,20,0,0,0,20-20" style="fill:none;stroke:#ecebf6;stroke-linecap:round;stroke-linejoin:round;stroke-width:2px"/><path d="M141.05,201.07a20,20,0,0,0-20-20" style="fill:none;stroke:#ecebf6;stroke-linecap:round;stroke-linejoin:round;stroke-width:2px"/><path d="M141.05,161.06a20,20,0,0,0,20,20" style="fill:none;stroke:#ecebf6;stroke-linecap:round;stroke-linejoin:round;stroke-width:2px"/><path d="M201.07,181.07a20,20,0,0,0-20,20" style="fill:none;stroke:#ecebf6;stroke-linecap:round;stroke-linejoin:round;stroke-width:2px"/><path d="M161.06,181.07a20,20,0,0,0,20-20" style="fill:none;stroke:#ecebf6;stroke-linecap:round;stroke-linejoin:round;stroke-width:2px"/><path d="M121,181.07a20,20,0,0,0-20,20" style="fill:none;stroke:#ecebf6;stroke-linecap:round;stroke-linejoin:round;stroke-width:2px"/><path d="M81,181.07a20,20,0,0,0,20-20" style="fill:none;stroke:#ecebf6;stroke-linecap:round;stroke-linejoin:round;stroke-width:2px"/><path d="M41,101a20,20,0,0,0-20,20" style="fill:none;stroke:#ecebf6;stroke-linecap:round;stroke-linejoin:round;stroke-width:2px"/><path d="M1,101A20,20,0,0,0,21,81" style="fill:none;stroke:#ecebf6;stroke-linecap:round;stroke-linejoin:round;stroke-width:2px"/><line x1="121.04" y1="141.05" x2="81.03" y2="141.05" style="fill:none;stroke:#ecebf6;stroke-linecap:round;stroke-linejoin:round;stroke-width:2px"/><line x1="101.04" y1="161.06" x2="101.04" y2="121.04" style="fill:none;stroke:#ecebf6;stroke-linecap:round;stroke-linejoin:round;stroke-width:2px"/><line x1="41.01" y1="101.04" x2="81.03" y2="101.04" style="fill:none;stroke:#ecebf6;stroke-linecap:round;stroke-linejoin:round;stroke-width:2px"/><line x1="61.02" y1="81.03" x2="61.02" y2="121.04" style="fill:none;stroke:#ecebf6;stroke-linecap:round;stroke-linejoin:round;stroke-width:2px"/><path d="M181.07,161.06a20,20,0,0,0-20-20" style="fill:none;stroke:#ecebf6;stroke-linecap:round;stroke-linejoin:round;stroke-width:2px"/><path d="M181.07,121a20,20,0,0,0,20,20" style="fill:none;stroke:#ecebf6;stroke-linecap:round;stroke-linejoin:round;stroke-width:2px"/><line x1="141.05" y1="161.06" x2="141.05" y2="121.04" style="fill:none;stroke:#ecebf6;stroke-linecap:round;stroke-linejoin:round;stroke-width:2px"/><line x1="121.04" y1="141.05" x2="161.06" y2="141.05" style="fill:none;stroke:#ecebf6;stroke-linecap:round;stroke-linejoin:round;stroke-width:2px"/><path d="M141.05,81a20,20,0,0,0,20,20" style="fill:none;stroke:#ecebf6;stroke-linecap:round;stroke-linejoin:round;stroke-width:2px"/><path d="M141.05,121a20,20,0,0,0-20-20" style="fill:none;stroke:#ecebf6;stroke-linecap:round;stroke-linejoin:round;stroke-width:2px"/><line x1="181.07" y1="81.03" x2="181.07" y2="121.04" style="fill:none;stroke:#ecebf6;stroke-linecap:round;stroke-linejoin:round;stroke-width:2px"/><line x1="201.07" y1="101.04" x2="161.06" y2="101.04" style="fill:none;stroke:#ecebf6;stroke-linecap:round;stroke-linejoin:round;stroke-width:2px"/><line x1="121.04" y1="21.01" x2="161.06" y2="21.01" style="fill:none;stroke:#ecebf6;stroke-linecap:round;stroke-linejoin:round;stroke-width:2px"/><line x1="141.05" y1="41.01" x2="141.05" y2="1" style="fill:none;stroke:#ecebf6;stroke-linecap:round;stroke-linejoin:round;stroke-width:2px"/><path d="M181.07,1a20,20,0,0,0,20,20" style="fill:none;stroke:#ecebf6;stroke-linecap:round;stroke-linejoin:round;stroke-width:2px"/><path d="M181.07,41a20,20,0,0,0-20-20" style="fill:none;stroke:#ecebf6;stroke-linecap:round;stroke-linejoin:round;stroke-width:2px"/><path d="M81,21A20,20,0,0,0,61,41" style="fill:none;stroke:#ecebf6;stroke-linecap:round;stroke-linejoin:round;stroke-width:2px"/><path d="M41,21A20,20,0,0,0,61,1" style="fill:none;stroke:#ecebf6;stroke-linecap:round;stroke-linejoin:round;stroke-width:2px"/><line x1="101.04" y1="41.01" x2="101.04" y2="1" style="fill:none;stroke:#ecebf6;stroke-linecap:round;stroke-linejoin:round;stroke-width:2px"/><line x1="121.04" y1="21.01" x2="81.03" y2="21.01" style="fill:none;stroke:#ecebf6;stroke-linecap:round;stroke-linejoin:round;stroke-width:2px"/><path d="M81,61a20,20,0,0,0,20-20" style="fill:none;stroke:#ecebf6;stroke-linecap:round;stroke-linejoin:round;stroke-width:2px"/><path d="M121,61a20,20,0,0,0-20,20" style="fill:none;stroke:#ecebf6;stroke-linecap:round;stroke-linejoin:round;stroke-width:2px"/><path d="M41,61A20,20,0,0,0,61,41" style="fill:none;stroke:#ecebf6;stroke-linecap:round;stroke-linejoin:round;stroke-width:2px"/><path d="M81,61A20,20,0,0,0,61,81" style="fill:none;stroke:#ecebf6;stroke-linecap:round;stroke-linejoin:round;stroke-width:2px"/><path d="M21,1A20,20,0,0,0,41,21" style="fill:none;stroke:#ecebf6;stroke-linecap:round;stroke-linejoin:round;stroke-width:2px"/><path d="M21,41A20,20,0,0,0,1,21" style="fill:none;stroke:#ecebf6;stroke-linecap:round;stroke-linejoin:round;stroke-width:2px"/><line x1="41.01" y1="61.02" x2="1" y2="61.02" style="fill:none;stroke:#ecebf6;stroke-linecap:round;stroke-linejoin:round;stroke-width:2px"/><line x1="21.01" y1="81.03" x2="21.01" y2="41.01" style="fill:none;stroke:#ecebf6;stroke-linecap:round;stroke-linejoin:round;stroke-width:2px"/><path d="M101,121a20,20,0,0,0-20-20" style="fill:none;stroke:#ecebf6;stroke-linecap:round;stroke-linejoin:round;stroke-width:2px"/><path d="M101,81a20,20,0,0,0,20,20" style="fill:none;stroke:#ecebf6;stroke-linecap:round;stroke-linejoin:round;stroke-width:2px"/><path d="M161.06,61a20,20,0,0,0-20,20" style="fill:none;stroke:#ecebf6;stroke-linecap:round;stroke-linejoin:round;stroke-width:2px"/><path d="M121,61a20,20,0,0,0,20-20" style="fill:none;stroke:#ecebf6;stroke-linecap:round;stroke-linejoin:round;stroke-width:2px"/></svg>